<svg width="32" height="32" viewBox="0 0 32 32" version="1.1" xmlns="http://www.w3.org/2000/svg">
  <defs>
    <linearGradient x1="0%" y1="100%" x2="100%" y2="0%" id="linearGradient-1">
      <stop stop-color="#4D27A8" offset="0%"></stop>
      <stop stop-color="#A166FF" offset="100%"></stop>
    </linearGradient>
  </defs>
  <g stroke="none" stroke-width="1" fill="none" fill-rule="evenodd">
    <g fill="url(#linearGradient-1)">
      <rect x="0" y="0" width="32" height="32"></rect>
    </g>
    <g transform="translate(3.2, 3.2)" fill="#FFFFFF">
      <path d="M11.6,15.021 L11.6,15.841 C5.975,17.163 5.2,19.488 5.2,21.6 L4.4,21.6 C4.4,19.292 5.231,16.472 11.6,15.021 L11.6,15.021 Z M11.6,17.104 L11.6,17.959 C7.603,19.542 7.6,22.004 7.6,24 L6.8,24 C6.8,21.952 6.804,18.876 11.6,17.104 L11.6,17.104 Z M22.8,21.43 C22.8,21.744 22.544,22 22.23,22 L13.77,22 C13.456,22 13.2,21.744 13.2,21.43 L13.2,16.17 C13.2,15.856 13.456,15.6 13.77,15.6 L22.23,15.6 C22.544,15.6 22.8,15.856 22.8,16.17 L22.8,21.43 Z M22.23,14.8 L13.77,14.8 C13.014,14.8 12.4,15.414 12.4,16.17 L12.4,21.43 C12.4,22.186 13.014,22.8 13.77,22.8 L22.23,22.8 C22.986,22.8 23.6,22.186 23.6,21.43 L23.6,16.17 C23.6,15.414 22.986,14.8 22.23,14.8 L22.23,14.8 Z M23.6,12.4 L23.6,13.2 C5.502,13.2 2.8,16.458 2.8,18.4 L2,18.4 C2,15.442 6.016,13.568 13.957,12.8 C6.016,12.032 2,10.158 2,7.2 L2.8,7.2 C2.8,9.142 5.502,12.4 23.6,12.4 L23.6,12.4 Z M23.6,10.8 L23.6,11.6 C6.681,11.6 4.4,7.758 4.4,4 L5.2,4 C5.2,7.362 7.386,10.8 23.6,10.8 L23.6,10.8 Z M23.6,9.2 L23.6,10 C16.265,10 11.491,9.056 9.004,7.115 C6.8,5.395 6.8,3.202 6.8,1.6 L7.6,1.6 C7.6,4.626 7.6,9.2 23.6,9.2 L23.6,9.2 Z M17.2,19.711 L17.2,17.889 L18.794,18.8 L17.2,19.711 Z M19.798,18.453 L16.998,16.853 C16.875,16.782 16.722,16.782 16.599,16.854 C16.476,16.926 16.4,17.057 16.4,17.2 L16.4,20.4 C16.4,20.542 16.476,20.674 16.599,20.746 C16.661,20.782 16.73,20.8 16.8,20.8 C16.868,20.8 16.937,20.782 16.998,20.747 L19.798,19.147 C19.923,19.076 20,18.944 20,18.8 C20,18.656 19.923,18.524 19.798,18.453 L19.798,18.453 Z"></path>
    </g>
  </g>
</svg>
